<?xml version="1.0" ?><svg id="Layer_1" style="enable-background:new 0 0 128 128;" version="1.1" viewBox="0 0 128 128" xml:space="preserve" xmlns="http://www.w3.org/2000/svg" xmlns:xlink="http://www.w3.org/1999/xlink"><style type="text/css">
	.st0{fill:#F37C5A;}
	.st1{fill:#FFFFFF;}
	.st2{fill:#7CCEDC;}
	.st3{fill:none;}
	.st4{fill:#464E58;}
	.st5{fill:#FDDA7F;}
	.st6{fill:#F2F2F2;}
	.st7{fill:#DAD9D8;}
	.st8{fill:#25313B;}
	.st9{fill:#F7BB52;}
	.st10{fill:#50C6CC;}
	.st11{fill:#DA664B;}
	.st12{opacity:0.25;}
	.st13{opacity:0.5;}
	.st14{opacity:0.45;}
	.st15{opacity:0.15;}
</style><g><g><circle class="st2" cx="64" cy="65.158" r="62.842"/></g><g><g><g><g><path class="st4" d="M56.846,85.442H15.954c-0.66,0-1.195,0.535-1.195,1.195v11.768c0,0.66,0.535,1.195,1.195,1.195h40.892       c0.66,0,1.195-0.535,1.195-1.195V86.637C58.041,85.977,57.506,85.442,56.846,85.442z"/></g><g><path class="st4" d="M56.846,100.642H15.954c-0.66,0-1.195,0.535-1.195,1.195v11.768c0,0.66,0.535,1.195,1.195,1.195h40.892       c0.66,0,1.195-0.535,1.195-1.195v-11.768C58.041,101.177,57.506,100.642,56.846,100.642z"/></g><g><g><g><rect class="st8" height="0.511" width="4.515" x="17.755" y="87.532"/></g><g><rect class="st8" height="0.511" width="4.515" x="17.755" y="89.425"/></g><g><rect class="st8" height="0.511" width="4.515" x="17.755" y="91.319"/></g><g><rect class="st8" height="0.511" width="4.515" x="17.755" y="93.212"/></g><g><rect class="st8" height="0.511" width="4.515" x="17.755" y="95.106"/></g><g><rect class="st8" height="0.511" width="4.515" x="17.755" y="96.999"/></g></g><g><g><rect class="st8" height="0.511" width="4.515" x="23.652" y="87.532"/></g><g><rect class="st8" height="0.511" width="4.515" x="23.652" y="89.425"/></g><g><rect class="st8" height="0.511" width="4.515" x="23.652" y="91.319"/></g><g><rect class="st8" height="0.511" width="4.515" x="23.652" y="93.212"/></g><g><rect class="st8" height="0.511" width="4.515" x="23.652" y="95.106"/></g><g><rect class="st8" height="0.511" width="4.515" x="23.652" y="96.999"/></g></g><g><g><rect class="st8" height="0.511" width="4.515" x="29.55" y="87.532"/></g><g><rect class="st8" height="0.511" width="4.515" x="29.55" y="89.425"/></g><g><rect class="st8" height="0.511" width="4.515" x="29.55" y="91.319"/></g><g><rect class="st8" height="0.511" width="4.515" x="29.55" y="93.212"/></g><g><rect class="st8" height="0.511" width="4.515" x="29.55" y="95.106"/></g><g><rect class="st8" height="0.511" width="4.515" x="29.55" y="96.999"/></g></g><g><circle class="st0" cx="43.367" cy="92.521" r="2.585"/></g><g><circle class="st6" cx="51.641" cy="92.521" r="2.585"/></g></g><g><g><g><rect class="st8" height="0.511" width="4.515" x="17.755" y="102.732"/></g><g><rect class="st8" height="0.511" width="4.515" x="17.755" y="104.625"/></g><g><rect class="st8" height="0.511" width="4.515" x="17.755" y="106.519"/></g><g><rect class="st8" height="0.511" width="4.515" x="17.755" y="108.412"/></g><g><rect class="st8" height="0.511" width="4.515" x="17.755" y="110.306"/></g><g><rect class="st8" height="0.511" width="4.515" x="17.755" y="112.199"/></g></g><g><g><rect class="st8" height="0.511" width="4.515" x="23.652" y="102.732"/></g><g><rect class="st8" height="0.511" width="4.515" x="23.652" y="104.625"/></g><g><rect class="st8" height="0.511" width="4.515" x="23.652" y="106.519"/></g><g><rect class="st8" height="0.511" width="4.515" x="23.652" y="108.412"/></g><g><rect class="st8" height="0.511" width="4.515" x="23.652" y="110.306"/></g><g><rect class="st8" height="0.511" width="4.515" x="23.652" y="112.199"/></g></g><g><g><rect class="st8" height="0.511" width="4.515" x="29.55" y="102.732"/></g><g><rect class="st8" height="0.511" width="4.515" x="29.55" y="104.625"/></g><g><rect class="st8" height="0.511" width="4.515" x="29.55" y="106.519"/></g><g><rect class="st8" height="0.511" width="4.515" x="29.55" y="108.412"/></g><g><rect class="st8" height="0.511" width="4.515" x="29.55" y="110.306"/></g><g><rect class="st8" height="0.511" width="4.515" x="29.55" y="112.199"/></g></g><g><circle class="st6" cx="43.367" cy="107.721" r="2.585"/></g><g><circle class="st0" cx="51.641" cy="107.721" r="2.585"/></g></g></g><g><g><path class="st4" d="M112.046,85.442H71.154c-0.66,0-1.195,0.535-1.195,1.195v11.768c0,0.66,0.535,1.195,1.195,1.195h40.892       c0.66,0,1.195-0.535,1.195-1.195V86.637C113.241,85.977,112.706,85.442,112.046,85.442z"/></g><g><path class="st4" d="M112.046,100.642H71.154c-0.66,0-1.195,0.535-1.195,1.195v11.768c0,0.66,0.535,1.195,1.195,1.195h40.892       c0.66,0,1.195-0.535,1.195-1.195v-11.768C113.241,101.177,112.706,100.642,112.046,100.642z"/></g><g><g><g><rect class="st8" height="0.511" width="4.515" x="72.955" y="87.532"/></g><g><rect class="st8" height="0.511" width="4.515" x="72.955" y="89.425"/></g><g><rect class="st8" height="0.511" width="4.515" x="72.955" y="91.319"/></g><g><rect class="st8" height="0.511" width="4.515" x="72.955" y="93.212"/></g><g><rect class="st8" height="0.511" width="4.515" x="72.955" y="95.106"/></g><g><rect class="st8" height="0.511" width="4.515" x="72.955" y="96.999"/></g></g><g><g><rect class="st8" height="0.511" width="4.515" x="78.853" y="87.532"/></g><g><rect class="st8" height="0.511" width="4.515" x="78.853" y="89.425"/></g><g><rect class="st8" height="0.511" width="4.515" x="78.853" y="91.319"/></g><g><rect class="st8" height="0.511" width="4.515" x="78.853" y="93.212"/></g><g><rect class="st8" height="0.511" width="4.515" x="78.853" y="95.106"/></g><g><rect class="st8" height="0.511" width="4.515" x="78.853" y="96.999"/></g></g><g><g><rect class="st8" height="0.511" width="4.515" x="84.75" y="87.532"/></g><g><rect class="st8" height="0.511" width="4.515" x="84.75" y="89.425"/></g><g><rect class="st8" height="0.511" width="4.515" x="84.75" y="91.319"/></g><g><rect class="st8" height="0.511" width="4.515" x="84.75" y="93.212"/></g><g><rect class="st8" height="0.511" width="4.515" x="84.75" y="95.106"/></g><g><rect class="st8" height="0.511" width="4.515" x="84.75" y="96.999"/></g></g><g><circle class="st0" cx="98.568" cy="92.521" r="2.585"/></g><g><circle class="st6" cx="106.842" cy="92.521" r="2.585"/></g></g><g><g><g><rect class="st8" height="0.511" width="4.515" x="72.955" y="102.732"/></g><g><rect class="st8" height="0.511" width="4.515" x="72.955" y="104.625"/></g><g><rect class="st8" height="0.511" width="4.515" x="72.955" y="106.519"/></g><g><rect class="st8" height="0.511" width="4.515" x="72.955" y="108.412"/></g><g><rect class="st8" height="0.511" width="4.515" x="72.955" y="110.306"/></g><g><rect class="st8" height="0.511" width="4.515" x="72.955" y="112.199"/></g></g><g><g><rect class="st8" height="0.511" width="4.515" x="78.853" y="102.732"/></g><g><rect class="st8" height="0.511" width="4.515" x="78.853" y="104.625"/></g><g><rect class="st8" height="0.511" width="4.515" x="78.853" y="106.519"/></g><g><rect class="st8" height="0.511" width="4.515" x="78.853" y="108.412"/></g><g><rect class="st8" height="0.511" width="4.515" x="78.853" y="110.306"/></g><g><rect class="st8" height="0.511" width="4.515" x="78.853" y="112.199"/></g></g><g><g><rect class="st8" height="0.511" width="4.515" x="84.75" y="102.732"/></g><g><rect class="st8" height="0.511" width="4.515" x="84.75" y="104.625"/></g><g><rect class="st8" height="0.511" width="4.515" x="84.75" y="106.519"/></g><g><rect class="st8" height="0.511" width="4.515" x="84.75" y="108.412"/></g><g><rect class="st8" height="0.511" width="4.515" x="84.75" y="110.306"/></g><g><rect class="st8" height="0.511" width="4.515" x="84.75" y="112.199"/></g></g><g><circle class="st6" cx="98.568" cy="107.721" r="2.585"/></g><g><circle class="st0" cx="106.842" cy="107.721" r="2.585"/></g></g></g></g><g><g><polygon class="st4" points="37.811,87.691 36.338,87.691 36.338,79.265 56.708,79.265 56.708,39.69 58.181,39.69       58.181,80.738 37.811,80.738     "/></g></g><g><g><polygon class="st4" points="93.809,87.691 92.337,87.691 92.337,80.738 71.967,80.738 71.967,39.69 73.44,39.69 73.44,79.265       93.809,79.265     "/></g></g><g><path class="st6" d="M112.673,40.186c0-9.062-7.228-16.42-16.231-16.662c-2.115-7.841-9.257-13.619-17.766-13.619     c-2.025,0-3.969,0.339-5.792,0.943C69.142,4.366,62.145,0,54.123,0C42.165,0,32.471,9.694,32.471,21.652     c0,0.502,0.023,0.998,0.057,1.491c-8.416,2.423-14.575,10.176-14.575,19.372c0,11.135,9.027,20.162,20.162,20.162     c0.554,0,1.102-0.028,1.645-0.072c1.992,7.094,8.492,12.302,16.222,12.302c6.207,0,11.617-3.364,14.544-8.358     c3.033,2.925,7.151,4.733,11.697,4.733c8.573,0,15.636-6.403,16.707-14.684C106.739,55.205,112.673,48.395,112.673,40.186z"/></g><g><g><circle class="st0" cx="51.227" cy="39.69" r="4.834"/></g><g><circle class="st10" cx="65.313" cy="39.69" r="4.834"/></g><g><circle class="st5" cx="79.398" cy="39.69" r="4.834"/></g></g></g></g></svg>