<svg version="1.1" id="Layer_1" xmlns="http://www.w3.org/2000/svg" x="0" y="0" viewBox="0 0 817.3 273.3" xml:space="preserve"><style>.st1{fill:#fff}</style><path class="st1" d="M300.6 67.3h33.1c10.7 0 18.1 2.8 22.8 7.5 4.1 4.1 6.2 9.4 6.2 16.3v.2c0 10.8-5.7 17.9-14.4 21.6l16.7 24.4h-22.3l-14.1-21.2H320v21.2h-19.4v-70zm32.3 33.6c6.5 0 10.4-3.2 10.4-8.3v-.2c0-5.6-4.1-8.4-10.5-8.4H320v16.9h12.9zm39.6-33.6h56.3v16.4h-37.1v10.7h33.6v15.3h-33.6v11.1h37.6v16.5h-56.8v-70zm90.9-.5h18.7l29.8 70.5h-20.8l-5-12.6H459l-5 12.6h-20.3l29.7-70.5zm17 42.8l-7.8-19.8-7.9 19.8h15.7zm32-7.1v-.2c0-20.4 15.6-36.4 36.8-36.4 14.3 0 23.5 6 29.7 14.5l-14.6 11.3c-4-4.9-8.6-8.2-15.3-8.2-9.8 0-16.7 8.4-16.7 18.6v.2c0 10.5 6.9 18.7 16.7 18.7 7.3 0 11.6-3.4 15.8-8.5l14.6 10.4c-6.6 9.1-15.5 15.8-30.9 15.8-20 0-36.1-15.3-36.1-36.2zm90.5-18.2H582v-17h61.3v17h-21v53h-19.4v-53zm49.4-17h19.4v70h-19.4v-70zm26.7 0h21.6l15.9 44.3 16-44.3h21.2l-28.4 70.5h-18L679 67.3zm81.5 0h56.3v16.4h-37.1v10.7h33.6v15.3h-33.6v11.1h37.6v16.5h-56.8v-70zM301.7 167.7H339v5.4h-31.5v18.5h28.1v5.3h-28.1v22.6h-5.9l.1-51.8zm45.3 26.2v-.1c0-14.3 10.8-26.9 26.6-26.9s26.4 12.4 26.4 26.7v.1c0 14.3-10.8 26.9-26.6 26.9S347 208.2 347 193.9zm46.9 0v-.1c0-11.8-8.6-21.4-20.5-21.4s-20.3 9.5-20.3 21.3v.1c0 11.8 8.6 21.4 20.5 21.4s20.3-9.6 20.3-21.3zm17.7 4v-30.2h5.9v29.8c0 11.2 5.9 17.5 15.9 17.5 9.6 0 15.7-5.8 15.7-17.1v-30.2h5.9v29.8c0 15.1-8.7 23-21.7 23s-21.7-7.9-21.7-22.6zm57.1-30.2h5.5l32.7 41.6v-41.6h5.7v51.9h-4.7l-33.5-42.5v42.6h-5.7v-52zm58.6 0h18c16.3 0 27.6 11.2 27.6 25.8v.1c0 14.6-11.3 26-27.6 26h-18v-51.9zm5.9 5.5v41.1h12.2c13.1 0 21.5-8.9 21.5-20.4v-.1c0-11.5-8.4-20.6-21.5-20.6h-12.2zm67.9-5.8h5.5l23.7 52.3H624l-6.1-13.7h-28.3l-6.2 13.7h-6l23.7-52.3zm14.5 33.3l-11.8-26.5-11.9 26.5h23.7zm32.1-27.5h-17.5v-5.4h40.9v5.4h-17.5v46.5h-5.9v-46.5zm34.5-5.5h5.9v51.9h-5.9v-51.9zm18.8 26.2v-.1c0-14.3 10.8-26.9 26.6-26.9s26.4 12.4 26.4 26.7v.1c0 14.3-10.8 26.9-26.6 26.9S701 208.2 701 193.9zm46.9 0v-.1c0-11.8-8.6-21.4-20.5-21.4s-20.3 9.5-20.3 21.3v.1c0 11.8 8.6 21.4 20.5 21.4s20.3-9.6 20.3-21.3zm18.5-26.2h5.5l32.7 41.6v-41.6h5.7v51.9h-4.7L772.1 177v42.6h-5.7v-51.9zm-638.6 79.4c-2.3-1.4-4.9-2.2-7.6-2.2-3.2 0-6.3 1.1-8.8 3.1-4.8 3.9-6.5 10.3-4.4 16.1 2.8 7.3 11 11 18.3 8.3 4.4-1.7 7.7-5.4 8.8-10 .3-1.1.4-2.2.4-3.3-.1-4.9-2.6-9.4-6.7-12zm102.6-64.9c-1-.2-2.1-.3-3.1-.3-1.9 0-3.8.4-5.5 1.2-4.2 1.7-7.3 5.4-8.3 9.9-.4 1.6-.4 3.3-.2 4.9.8 5.9 5.2 10.7 11 12 .2.1.5.1.7.1.8.1 1.6.2 2.4.2 6.6 0 12.4-4.6 13.8-11.1 1-4.3-.1-8.8-3-12.2-2-2.4-4.7-4-7.8-4.7zm-8.7-97.6c.8.4 1.7.6 2.6.8 1 .2 2.1.3 3.1.3 4.2 0 8.1-1.9 10.8-5.1 5-5.9 4.3-14.8-1.6-19.9-1.7-1.5-3.8-2.5-6.1-3-1-.2-2.1-.3-3.1-.3-.6 0-1.3.1-1.9.2-5.9.8-10.6 5.1-12 10.9-.1.3-.1.6-.2.9-1 6.4 2.5 12.6 8.4 15.2z"/><g opacity=".6"><path class="st1" d="M88.5 171.3l6.6 3.9c2.2 1.3 4.4 2.5 6.7 3.8 5.7-2.6 11.5-5.4 17.3-8.5-5.3-2.8-10.7-5.7-16.2-8.9s-10.7-6.3-15.8-9.6c.4 6.7.8 13.1 1.4 19.3zm74.9 18.7c1.3-9.2 2.3-19 2.9-29.1-5.3 3.5-10.9 7-16.6 10.5-.4 4.4-.9 8.7-1.4 12.9 5.2 2 10.2 4 15.1 5.7zm3.7-48.7c0-2.5.1-5.1.1-7.7s0-5.1-.1-7.7c3.6 2.6 7.1 5.1 10.4 7.7 4.5-3.4 8.7-6.8 12.5-10.2-7.3-5.8-15.3-11.5-23.8-17.1-.6-10.1-1.6-19.9-2.9-29.1-4.8 1.7-9.9 3.6-15.1 5.8.5 4.2 1 8.5 1.4 12.9L143 92c-2.2-1.3-4.4-2.5-6.7-3.8-5.7 2.6-11.5 5.4-17.3 8.5 5.3 2.8 10.7 5.7 16.2 8.9s10.7 6.3 15.8 9.6c.3 6 .4 12.2.4 18.4s-.1 12.4-.4 18.4c5.6-3.5 11-7.1 16.1-10.7zm-33.8 98.2c4.8 3.2 8.3 8.2 9.8 13.8 5.6-7.6 10.3-18.3 14.1-32.2 1.3-4.9 2.5-10 3.6-15.5-4.8-1.6-9.8-3.5-14.9-5.5-3.2 16.8-7.6 30.4-12.6 39.4zm69-105.9c-3.8 3.4-7.9 6.8-12.3 10.2 13 11.1 22.6 21.7 27.9 30.6 3-1.2 6.2-1.9 9.4-1.9 1.8 0 3.5.2 5.2.6.9.2 1.8.5 2.7.8-3.7-8.9-10.8-18.7-21.3-29.3-3.5-3.7-7.4-7.3-11.6-11z"/><path class="st1" d="M76.9 202.6c-.8-4.1-1.4-8.3-2.1-12.6-16.4 5.8-30.7 8.9-41 8.9-8.4 0-14.3-2-16.7-6.3-5.5-9.6 7.2-28.2 31.1-48.8 7.3 5.8 15.3 11.5 23.8 17.1-.2-3-.3-6.1-.5-9.2-.1-3.4-.2-6.9-.3-10.4-3.2-2.3-6.3-4.6-9.4-6.9l-1.1-.8-12.5-10.2c-.6-.5-1.1-1-1.6-1.4-22.9-20-34.9-38-29.5-47.3 2.5-4.3 8.4-6.3 16.7-6.3 10.4 0 24.6 3.1 41 8.9-1.3 9.2-2.3 19-2.9 29.1 5.3-3.5 10.9-7 16.6-10.5.4-4.4.9-8.7 1.4-12.9 3.9 1.6 7.8 3.4 11.9 5.2 5.8-3.2 11.6-6.3 17.3-9.1-9.1-4.5-18.1-8.5-26.7-12 5.8-31 15.6-51.4 26.7-51.4s20.9 20.4 26.7 51.4c5.1-2 10.1-3.9 14.9-5.5-1.1-5.4-2.3-10.6-3.6-15.5-8.4-30.6-21.2-46.1-38-46.1s-29.6 15.5-38 46.1c-1.3 4.9-2.5 10-3.6 15.5-17-5.8-32.1-8.9-43.7-8.9-18.3 0-26.6 7.7-30.4 14.1-8.4 14.6-1.4 33.4 20.9 56 3.5 3.6 7.4 7.2 11.6 10.8-4.2 3.6-8 7.3-11.6 10.8C2.1 167-5 185.8 3.4 200.4c3.7 6.5 12 14.2 30.4 14.2 11.6 0 26.7-3.2 43.7-8.9-.2-1.1-.4-2.1-.6-3.1z"/></g><path class="st1" d="M207.4 208.7c-1.9-3-3.1-6.3-3.5-9.8-10.3-.1-24.4-3.2-40.5-8.9-4.8-1.7-9.9-3.6-15.1-5.8-3.9-1.6-7.8-3.4-11.9-5.2 2.2-1.2 4.4-2.5 6.7-3.8l6.6-3.9c5.7-3.4 11.2-6.9 16.6-10.5 8.5-5.6 16.4-11.3 23.8-17.1 4.3-3.4 8.4-6.8 12.3-10.2 4.2-3.6 8-7.3 11.6-10.8 10.2-10.4 17.2-19.9 21-28.6-2.4.8-5 1.2-7.5 1.2-1.8 0-3.5-.2-5.2-.6-1.5-.3-2.9-.8-4.3-1.4-.1 0-.1-.1-.2-.1-5.3 8.8-14.8 19.2-27.6 30.2-3.9 3.3-8.1 6.7-12.5 10.2-3.3 2.6-6.8 5.1-10.4 7.7-5.1 3.6-10.4 7.2-16 10.8-5.1 3.2-10.3 6.4-15.8 9.6s-10.8 6.1-16.2 8.9c-5.9 3.1-11.7 5.9-17.3 8.5-4 1.9-8 3.6-11.9 5.2-.5-4.2-1-8.5-1.4-12.9-.6-6.2-1-12.6-1.3-19.3-.3-6-.4-12.2-.4-18.4s.1-12.4.4-18.4c5.1-3.2 10.3-6.4 15.8-9.6s10.8-6.1 16.2-8.9c5.9-3.1 11.7-5.9 17.3-8.5 4-1.9 8-3.6 11.9-5.2 5.2-2.2 10.2-4.1 15.1-5.8 16.1-5.7 30.1-8.8 40.4-8.9 0-.2 0-.3.1-.5.1-.6.2-1 .3-1.5 1.2-5.2 4.1-9.8 8.2-13.2-2.4-.3-5.1-.5-7.9-.6h-.2c-11.6 0-26.6 3.2-43.5 8.9-4.8 1.6-9.8 3.5-14.9 5.5-8.6 3.5-17.6 7.5-26.7 12-5.7 2.8-11.5 5.9-17.3 9.1-2.2 1.2-4.4 2.5-6.7 3.8l-6.6 3.9c-5.7 3.4-11.2 6.9-16.6 10.5-8.4 5.6-16.4 11.4-23.8 17.1L61 133.6c3.3-2.5 6.8-5.1 10.4-7.6 0 2.5-.1 5.1-.1 7.7s0 5.1.1 7.7l.3 10.4c.1 3.1.3 6.2.5 9.2.6 10.1 1.6 19.9 2.9 29.1.6 4.3 1.3 8.5 2.1 12.6.2 1 .4 2.1.6 3.1 1.1 5.4 2.3 10.6 3.6 15.5 4.2 15.2 9.5 26.7 15.8 34.4.9-5.9 4-11.2 8.7-14.9-5.3-9-9.9-23.1-13.1-40.5 8.6-3.5 17.6-7.5 26.7-12 9.1 4.5 18.1 8.5 26.7 12 5.1 2 10.1 3.9 14.9 5.5 17 5.8 32.1 8.9 43.7 8.9 2.6 0 5.1-.2 7.7-.5-2-1.5-3.7-3.4-5.1-5.5z"/></svg>